<svg xmlns="http://www.w3.org/2000/svg" version="1.1" xmlns:xlink="http://www.w3.org/1999/xlink" width="1000" height="1000"><g clip-path="url(#SvgjsClipPath1440)"><rect width="1000" height="1000" fill="#ffffff"></rect><g transform="matrix(41.666666666666664,0,0,41.666666666666664,0,0)"><svg xmlns="http://www.w3.org/2000/svg" viewBox="0 0 24 24" width="24" height="24"><path fill="hsl(45 93% 47%)" d="M21 16V8a2 2 0 0 0-1-1.73l-7-4a2 2 0 0 0-2 0l-7 4A2 2 0 0 0 3 8v8a2 2 0 0 0 1 1.73l7 4a2 2 0 0 0 2 0l7-4a2 2 0 0 0 1-1.73z"></path></svg></g></g><defs><clipPath id="SvgjsClipPath1440"><rect width="1000" height="1000" x="0" y="0" rx="450" ry="450"></rect></clipPath></defs></svg>